# xmcd CD database file
#
# Track frame offsets:
#	150
#	32700
#	49763
#	65925
#	86963
#	116475
#	137700
#	154125
#	200438
#	213750
#
# Disc length: 3591 seconds
#
# Revision: 0
# Processed by: cddbd v1.5.1PL0 Copyright (c) Steve Scherf et al.
# Submitted via: CDex 1.51
#
DISCID=920e050a
DTITLE=Yusef Lateef - Yusef Lateef Plays Ballads
DYEAR=1993
DGENRE=Jazz
TTITLE0=Night Songs
TTITLE1=Beneath the Sky
TTITLE2=Somewhere in the Forest
TTITLE3=Twilight
TTITLE4=Another Place
TTITLE5=You are Me
TTITLE6=You are Him
TTITLE7=You are Them
TTITLE8=Inscape
TTITLE9=All are One
EXTD=YEAR: 1993
EXTT0=
EXTT1=
EXTT2=
EXTT3=
EXTT4=
EXTT5=
EXTT6=
EXTT7=
EXTT8=
EXTT9=
PLAYORDER=
